# xmcd
#
# Track frame offsets: 
#        150
#        28610
#        46582
#        76244
#        94304
#        124628
#        144050
#        162186
#        181720
#        204176
#        219079
#        247273
#
# Disc length: 3583 seconds
#
# Revision: 0
# Processed by: cddbd v1.5.2PL0 Copyright (c) Steve Scherf et al.
# Submitted via: ExactAudioCopyFreeDBPlugin 1.0
#
DISCID=8c0dfd0c
DTITLE=Teddy Lee Hooker - Elecktrik Rain
DYEAR=2006
DGENRE=Blues
TTITLE0=The Blues Makes Me Feel Alright
TTITLE1=Slip Away
TTITLE2=You Looked Good Last Night
TTITLE3=Hard On For Ya Baby
TTITLE4=A Quitter Never Wins
TTITLE5=Comin Home Jam
TTITLE6=How Many More Years
TTITLE7=Must Be Jelly
TTITLE8=She Gives Me The Shakes
TTITLE9=Boom Boom Boom
TTITLE10=Common Law
TTITLE11=Jealous Woman Blues
EXTD=
EXTT0=
EXTT1=
EXTT2=
EXTT3=
EXTT4=
EXTT5=
EXTT6=
EXTT7=
EXTT8=
EXTT9=
EXTT10=
EXTT11=
PLAYORDER=
